<svg width="166" height="27" viewBox="0 0 166 27" fill="none" xmlns="http://www.w3.org/2000/svg">
<path d="M9.64551 0.348877H20.3571L28.0571 10.2853L20.3571 20.2217H9.64551L17.3455 10.2853L9.64551 0.348877Z" fill="#04CBDD"/>
<path d="M7.18139 10.8698L14.0283 10.8698L6.84739 20.2217L0.000455856 20.2217L7.18139 10.8698Z" fill="#4C98EF"/>
<path d="M15.3225 21.9752L8.47559 21.9752L12.0661 26.6511L18.913 26.6511L15.3225 21.9752Z" fill="#4C98EF"/>
<path d="M48.3326 13.448C48.3326 14.888 48.0566 16.094 47.5046 17.066C46.9526 18.038 46.1486 18.77 45.0926 19.262C44.0486 19.754 42.7886 20 41.3126 20H37.6766V7.148H41.7086C43.0526 7.148 44.2166 7.388 45.2006 7.868C46.1966 8.348 46.9646 9.056 47.5046 9.992C48.0566 10.916 48.3326 12.068 48.3326 13.448ZM45.5066 13.52C45.5066 12.572 45.3686 11.792 45.0926 11.18C44.8166 10.568 44.4026 10.118 43.8506 9.83C43.3106 9.53 42.6446 9.38 41.8526 9.38H40.3946V17.75H41.5646C42.8966 17.75 43.8866 17.396 44.5346 16.688C45.1826 15.98 45.5066 14.924 45.5066 13.52ZM54.8349 9.992C55.7469 9.992 56.5269 10.166 57.1749 10.514C57.8349 10.862 58.3449 11.366 58.7049 12.026C59.0649 12.686 59.2449 13.496 59.2449 14.456V15.752H52.9089C52.9329 16.508 53.1549 17.102 53.5749 17.534C54.0069 17.966 54.6009 18.182 55.3569 18.182C55.9929 18.182 56.5689 18.122 57.0849 18.002C57.6009 17.87 58.1349 17.672 58.6869 17.408V19.478C58.2069 19.718 57.6969 19.892 57.1569 20C56.6289 20.12 55.9869 20.18 55.2309 20.18C54.2469 20.18 53.3769 20 52.6209 19.64C51.8649 19.268 51.2709 18.71 50.8389 17.966C50.4069 17.222 50.1909 16.286 50.1909 15.158C50.1909 14.006 50.3829 13.052 50.7669 12.296C51.1629 11.528 51.7089 10.952 52.4049 10.568C53.1009 10.184 53.9109 9.992 54.8349 9.992ZM54.8529 11.9C54.3369 11.9 53.9049 12.068 53.5569 12.404C53.2209 12.74 53.0229 13.262 52.9629 13.97H56.7249C56.7249 13.574 56.6529 13.22 56.5089 12.908C56.3769 12.596 56.1729 12.35 55.8969 12.17C55.6209 11.99 55.2729 11.9 54.8529 11.9ZM64.3176 20H61.6356V7.148H68.9976V9.38H64.3176V12.692H68.6736V14.924H64.3176V20ZM73.9805 10.172V20H71.2985V10.172H73.9805ZM72.6485 6.32C73.0445 6.32 73.3865 6.416 73.6745 6.608C73.9625 6.788 74.1065 7.13 74.1065 7.634C74.1065 8.126 73.9625 8.468 73.6745 8.66C73.3865 8.852 73.0445 8.948 72.6485 8.948C72.2405 8.948 71.8925 8.852 71.6045 8.66C71.3285 8.468 71.1905 8.126 71.1905 7.634C71.1905 7.13 71.3285 6.788 71.6045 6.608C71.8925 6.416 72.2405 6.32 72.6485 6.32ZM88.0004 20H80.6024V7.148H88.0004V9.38H83.3204V12.206H87.6764V14.438H83.3204V17.75H88.0004V20ZM92.4747 14.978L89.3067 10.172H92.3487L94.2567 13.304L96.1827 10.172H99.2247L96.0207 14.978L99.3687 20H96.3267L94.2567 16.634L92.1867 20H89.1447L92.4747 14.978ZM104.509 20.18C103.537 20.18 102.709 20.006 102.025 19.658C101.341 19.298 100.819 18.746 100.459 18.002C100.099 17.258 99.9194 16.304 99.9194 15.14C99.9194 13.94 100.123 12.962 100.531 12.206C100.939 11.45 101.503 10.892 102.223 10.532C102.955 10.172 103.795 9.992 104.743 9.992C105.415 9.992 105.997 10.058 106.489 10.19C106.993 10.322 107.431 10.478 107.803 10.658L107.011 12.728C106.591 12.56 106.195 12.422 105.823 12.314C105.463 12.206 105.103 12.152 104.743 12.152C104.275 12.152 103.885 12.266 103.573 12.494C103.261 12.71 103.027 13.04 102.871 13.484C102.727 13.916 102.655 14.462 102.655 15.122C102.655 15.77 102.733 16.31 102.889 16.742C103.057 17.162 103.297 17.48 103.609 17.696C103.921 17.9 104.299 18.002 104.743 18.002C105.307 18.002 105.805 17.93 106.237 17.786C106.669 17.63 107.089 17.42 107.497 17.156V19.442C107.089 19.706 106.657 19.892 106.201 20C105.757 20.12 105.193 20.18 104.509 20.18ZM112.441 9.11C112.441 9.59 112.423 10.052 112.387 10.496C112.363 10.94 112.339 11.252 112.315 11.432H112.459C112.675 11.096 112.927 10.826 113.215 10.622C113.503 10.406 113.821 10.25 114.169 10.154C114.529 10.046 114.907 9.992 115.303 9.992C116.011 9.992 116.629 10.118 117.157 10.37C117.685 10.622 118.093 11.012 118.381 11.54C118.681 12.068 118.831 12.752 118.831 13.592V20H116.149V14.258C116.149 13.55 116.017 13.022 115.753 12.674C115.501 12.314 115.105 12.134 114.565 12.134C114.025 12.134 113.599 12.26 113.287 12.512C112.987 12.764 112.771 13.13 112.639 13.61C112.507 14.09 112.441 14.678 112.441 15.374V20H109.759V6.32H112.441V9.11ZM125.622 9.974C126.942 9.974 127.95 10.262 128.646 10.838C129.354 11.402 129.708 12.272 129.708 13.448V20H127.836L127.314 18.668H127.242C126.966 19.016 126.678 19.304 126.378 19.532C126.09 19.76 125.754 19.922 125.37 20.018C124.998 20.126 124.536 20.18 123.984 20.18C123.408 20.18 122.886 20.072 122.418 19.856C121.962 19.628 121.602 19.286 121.338 18.83C121.074 18.362 120.942 17.774 120.942 17.066C120.942 16.022 121.308 15.254 122.04 14.762C122.772 14.258 123.87 13.982 125.334 13.934L127.044 13.88V13.448C127.044 12.932 126.906 12.554 126.63 12.314C126.366 12.074 125.994 11.954 125.514 11.954C125.034 11.954 124.566 12.026 124.11 12.17C123.654 12.302 123.198 12.47 122.742 12.674L121.86 10.856C122.388 10.58 122.97 10.364 123.606 10.208C124.254 10.052 124.926 9.974 125.622 9.974ZM126 15.482C125.136 15.506 124.536 15.662 124.2 15.95C123.864 16.238 123.696 16.616 123.696 17.084C123.696 17.492 123.816 17.786 124.056 17.966C124.296 18.134 124.608 18.218 124.992 18.218C125.568 18.218 126.054 18.05 126.45 17.714C126.846 17.366 127.044 16.88 127.044 16.256V15.446L126 15.482ZM138.033 9.992C139.089 9.992 139.935 10.28 140.571 10.856C141.207 11.42 141.525 12.332 141.525 13.592V20H138.843V14.258C138.843 13.55 138.717 13.022 138.465 12.674C138.213 12.314 137.811 12.134 137.259 12.134C136.443 12.134 135.885 12.416 135.585 12.98C135.285 13.532 135.135 14.33 135.135 15.374V20H132.453V10.172H134.505L134.865 11.432H135.009C135.225 11.096 135.489 10.826 135.801 10.622C136.113 10.406 136.461 10.25 136.845 10.154C137.229 10.046 137.625 9.992 138.033 9.992ZM147.469 9.992C148.069 9.992 148.609 10.112 149.089 10.352C149.569 10.592 149.977 10.952 150.313 11.432H150.385L150.601 10.172H152.869V20.018C152.869 20.954 152.683 21.74 152.311 22.376C151.951 23.012 151.405 23.492 150.673 23.816C149.941 24.152 149.035 24.32 147.955 24.32C147.259 24.32 146.611 24.278 146.011 24.194C145.423 24.11 144.847 23.96 144.283 23.744V21.602C144.691 21.77 145.099 21.908 145.507 22.016C145.927 22.136 146.353 22.22 146.785 22.268C147.229 22.328 147.673 22.358 148.117 22.358C148.813 22.358 149.329 22.172 149.665 21.8C150.013 21.428 150.187 20.87 150.187 20.126V19.928C150.187 19.724 150.193 19.514 150.205 19.298C150.229 19.082 150.247 18.89 150.259 18.722H150.187C149.851 19.238 149.449 19.61 148.981 19.838C148.513 20.066 147.985 20.18 147.397 20.18C146.233 20.18 145.321 19.736 144.661 18.848C144.013 17.948 143.689 16.7 143.689 15.104C143.689 14.024 143.839 13.106 144.139 12.35C144.439 11.582 144.871 11 145.435 10.604C146.011 10.196 146.689 9.992 147.469 9.992ZM148.315 12.17C147.895 12.17 147.541 12.284 147.253 12.512C146.977 12.728 146.767 13.058 146.623 13.502C146.491 13.934 146.425 14.48 146.425 15.14C146.425 16.124 146.581 16.862 146.893 17.354C147.205 17.834 147.691 18.074 148.351 18.074C148.699 18.074 148.999 18.032 149.251 17.948C149.503 17.852 149.707 17.702 149.863 17.498C150.031 17.282 150.157 17.006 150.241 16.67C150.325 16.334 150.367 15.926 150.367 15.446V15.122C150.367 14.414 150.295 13.844 150.151 13.412C150.007 12.98 149.785 12.668 149.485 12.476C149.185 12.272 148.795 12.17 148.315 12.17ZM159.724 9.992C160.636 9.992 161.416 10.166 162.064 10.514C162.724 10.862 163.234 11.366 163.594 12.026C163.954 12.686 164.134 13.496 164.134 14.456V15.752H157.798C157.822 16.508 158.044 17.102 158.464 17.534C158.896 17.966 159.49 18.182 160.246 18.182C160.882 18.182 161.458 18.122 161.974 18.002C162.49 17.87 163.024 17.672 163.576 17.408V19.478C163.096 19.718 162.586 19.892 162.046 20C161.518 20.12 160.876 20.18 160.12 20.18C159.136 20.18 158.266 20 157.51 19.64C156.754 19.268 156.16 18.71 155.728 17.966C155.296 17.222 155.08 16.286 155.08 15.158C155.08 14.006 155.272 13.052 155.656 12.296C156.052 11.528 156.598 10.952 157.294 10.568C157.99 10.184 158.8 9.992 159.724 9.992ZM159.742 11.9C159.226 11.9 158.794 12.068 158.446 12.404C158.11 12.74 157.912 13.262 157.852 13.97H161.614C161.614 13.574 161.542 13.22 161.398 12.908C161.266 12.596 161.062 12.35 160.786 12.17C160.51 11.99 160.162 11.9 159.742 11.9Z" fill="#040404"/>
</svg>
